<svg width="819.63" height="337.08" version="1.1" viewBox="0 0 216.86 89.186" xmlns="http://www.w3.org/2000/svg"><defs><clipPath id="clipPath8892"><path d="m168.08 92.026s-4.0933 5.4316-7.0843 7.593c-2.991 2.1614-6.5526 3.9106-10.507 5.1194s-8.303 1.8772-12.867 1.8772-8.9123-.66844-12.867-1.8772-7.5164-2.9579-10.507-5.1194c-2.991-2.1614-5.4116-4.7351-7.0843-7.593 27.643-14.963 60.918 0 60.918 0z" style="-inkscape-stroke:none;color:#000000;fill:#ffbc03;stroke-linecap:round;stroke-width:2.7611"/></clipPath><filter id="filter8886" x="-.032368" y="-.092834" width="1.0647" height="1.1857" style="color-interpolation-filters:sRGB"><feGaussianBlur stdDeviation="0.82157907"/></filter><clipPath id="clipPath7471"><path d="m-25.094 115.02v27.526a3.7804 3.7804 0 003.7804 3.7804h15.266a5.9706 5.9706 0 005.7925-4.5232l.34285-1.3721c.23813-.95297-.29568-2.1111-.93634-2.8496-.82238-.94795-1.2947-2.1739-1.2949-3.4674 3.6e-6-2.9225 2.3692-5.2917 5.2917-5.2917 2.9225 0 5.2917 2.3692 5.2917 5.2917-.0001895 1.2935-.47248 2.5194-1.2949 3.4674-.64066.73849-1.1745 1.8966-.93634 2.8496l.34285 1.3721a5.9706 5.9706 0 005.7925 4.5232h15.266a3.7804 3.7804 0 003.7804-3.7804v-27.526z" style="-inkscape-stroke:none;color:#000000;fill:#ffbb00;stroke-linecap:round;stroke-width:2.6458"/></clipPath><filter id="filter7475" x="-.033182" y="-.086732" width="1.0664" height="1.1735" style="color-interpolation-filters:sRGB"><feGaussianBlur stdDeviation="1.0362502"/></filter><clipPath id="clipPath7199"><path d="m137.62 75.107c-21.825 0-39.687 17.863-39.687 39.687 0 21.825 17.863 39.688 39.687 39.688s39.688-17.863 39.688-39.688c0-21.825-17.863-39.687-39.688-39.687zm0 15.875c13.245 0 23.812 10.567 23.812 23.812 0 13.245-10.567 23.812-23.812 23.812s-23.812-10.567-23.812-23.812c0-13.245 10.567-23.812 23.812-23.812z" style="color:#000000;fill:#ffbb00"/></clipPath><filter id="filter7203" x="-.048" y="-.048" width="1.096" height="1.096" style="color-interpolation-filters:sRGB"><feGaussianBlur stdDeviation="1.3921484"/></filter><clipPath id="clipPath7265"><path d="m127.47 120.79c-2.2391-.002-4.4804.65789-6.344 1.9018-8.1242 6.6584-5.1398 19.715-.91132 26.437 4.2285 6.7221 9.2381 12.523 16.782 12.523.20802 0 .41672-.002.6245-.008.20778.006.41507.008.62309.008 7.5444 1e-5 12.555-5.8005 16.784-12.523 4.2285-6.7221 7.2128-19.778-.91132-26.437-1.8636-1.2439-4.1048-1.904-6.344-1.9018-.62694.00079-1.2552.0532-1.8735.15966-3.1141.53649-5.9666 2.4423-8.2789 2.4423-2.3123 0-5.1648-1.9058-8.2789-2.4423-.61826-.1065-1.2452-.15896-1.8721-.15966z" style="-inkscape-stroke:none;color:#000000;fill:#ffbb00;stroke-linecap:round;stroke-width:2.6458"/></clipPath><filter id="filter7269" x="-.046684" y="-.049392" width="1.0934" height="1.0988" style="color-interpolation-filters:sRGB"><feGaussianBlur stdDeviation="0.72660098"/></filter><filter id="filter7463" x="-.026273" y="-.27741" width="1.0525" height="1.5548" style="color-interpolation-filters:sRGB"><feGaussianBlur stdDeviation="1.562534"/></filter></defs><g transform="translate(84.207 -96.008)"><g transform="translate(-45.975 22.223)"><path d="m168.08 92.026s-4.0933 5.4316-7.0843 7.593c-2.991 2.1614-6.5526 3.9106-10.507 5.1194s-8.303 1.8772-12.867 1.8772-8.9123-.66844-12.867-1.8772-7.5164-2.9579-10.507-5.1194c-2.991-2.1614-5.4116-4.7351-7.0843-7.593 27.643-14.963 60.918 0 60.918 0z" style="-inkscape-stroke:none;color:#000000;fill:#ffbc03;stroke-linecap:round;stroke-width:2.7611"/><path d="m168.08 86.734s-4.0933 5.4316-7.0843 7.593c-2.991 2.1614-6.5526 3.9106-10.507 5.1194-3.9549 1.2088-8.303 1.8772-12.867 1.8772s-8.9123-.66844-12.867-1.8772c-3.9549-1.2088-7.5164-2.9579-10.507-5.1194-2.991-2.1614-5.4116-4.7351-7.0843-7.593 27.643-14.963 60.918 0 60.918 0z" clip-path="url(#clipPath8892)" style="-inkscape-stroke:none;color:#000000;fill:#ffffff;filter:url(#filter8886);opacity:.5;stroke-linecap:round;stroke-width:2.7611"/><path d="m138.64 84.045c-10.092-.4423-21.493 1.0049-32.139 6.7676l-1.2539.67969.7207 1.2305c1.7835 3.0471 4.3406 5.7566 7.4668 8.0156 3.1261 2.259 6.8228 4.0704 10.912 5.3203 4.0893 1.2499 8.5725 1.9375 13.271 1.9375s9.1822-.68761 13.271-1.9375c4.0893-1.2499 7.786-3.0613 10.912-5.3203 3.3964-2.4543 7.3789-7.8809 7.3789-7.8809l1.0391-1.3809-1.5762-.70898s-13.185-5.9855-30.004-6.7227zm-.11523 2.8105c14.16.63387 24.594 4.69 27.26 5.7891-1.293 1.6046-3.6488 4.4457-5.5996 5.8555-2.856 2.0638-6.2831 3.7503-10.104 4.918-3.8204 1.1677-8.0335 1.8164-12.463 1.8164-4.4294 0-8.6425-.64872-12.463-1.8164-3.8204-1.1677-7.2476-2.8542-10.104-4.918-2.3965-1.7318-4.277-3.7711-5.7793-5.9453 9.6768-4.8329 20.009-6.113 29.252-5.6992z" style="-inkscape-stroke:none;color:#000000;fill:#d68600;stroke-linecap:round"/><path d="m-25.094 115.02v27.526a3.7804 3.7804 0 003.7804 3.7804h15.266a5.9706 5.9706 0 005.7925-4.5232l.34285-1.3721c.23813-.95297-.29568-2.1111-.93634-2.8496-.82238-.94795-1.2947-2.1739-1.2949-3.4674 3.6e-6-2.9225 2.3692-5.2917 5.2917-5.2917 2.9225 0 5.2917 2.3692 5.2917 5.2917-.0001895 1.2935-.47248 2.5194-1.2949 3.4674-.64066.73849-1.1745 1.8966-.93634 2.8496l.34285 1.3721a5.9706 5.9706 0 005.7925 4.5232h15.266a3.7804 3.7804 0 003.7804-3.7804v-27.526z" style="-inkscape-stroke:none;color:#000000;fill:#ffbb00;stroke-linecap:round;stroke-width:2.6458"/><path d="m-34.327 115.02v25.212a5.0164 3.4626 0 005.0164 3.4626h20.257a7.9225 5.4686 0 007.6862-4.1429l.45494-1.2567c.31598-.87285-.39235-1.9336-1.2424-2.61-1.0912-.86825-1.7179-1.9911-1.7182-3.1759 4.7e-6-2.6768 3.1437-4.8468 7.0216-4.8468 3.8779 0 7.0216 2.17 7.0216 4.8468-.000252 1.1847-.62695 2.3076-1.7182 3.1759-.8501.6764-1.5584 1.7372-1.2425 2.61l.45494 1.2567a7.9225 5.4686 0 007.6862 4.1429h20.257a5.0164 3.4626 0 005.0164-3.4626v-25.212z" clip-path="url(#clipPath7471)" style="color:#000000;fill:#ffffff;filter:url(#filter7475);opacity:.5;stroke-linecap:round;stroke-width:2.9169"/><path d="m-26.416 113.69v28.85c0 2.8028 2.3007 5.1035 5.1035 5.1035h15.266c3.3402 0 6.2664-2.2848 7.0762-5.5254l.3418-1.373c.41197-1.6486-.36979-3.0562-1.2207-4.0371-.6167-.71088-.97056-1.628-.9707-2.5996 2.71e-6-2.2076 1.7612-3.9688 3.9688-3.9688 2.2075 0 3.9687 1.7612 3.9688 3.9688-.0001424.97158-.354 1.8887-.9707 2.5996-.85092.98086-1.6327 2.3884-1.2207 4.0371l.3418 1.373c.80977 3.2406 3.7359 5.5254 7.0762 5.5254h15.268c2.8028 0 5.1016-2.3007 5.1016-5.1035v-28.85zm2.6445 2.6465h53.84v26.203c0 1.3729-1.0841 2.457-2.457 2.457h-15.268c-2.1397 0-3.9891-1.4437-4.5078-3.5195l-.34375-1.373c-.064293-.25729.22195-1.166.65234-1.6621 1.028-1.185 1.6189-2.7186 1.6191-4.334-4.5e-6-3.6375-2.9778-6.6152-6.6152-6.6152-3.6375 0-6.6152 2.9778-6.6152 6.6152.0002367 1.6154.59109 3.149 1.6191 4.334.43039.49612.71664 1.4048.65234 1.6621l-.34375 1.373c-.51871 2.0758-2.3681 3.5195-4.5078 3.5195h-15.266c-1.3729 0-2.459-1.0841-2.459-2.457z" style="-inkscape-stroke:none;color:#000000;fill:#d68600;stroke-linecap:round"/><path d="m137.62 75.107c-21.825 0-39.687 17.863-39.687 39.687 0 21.825 17.863 39.688 39.687 39.688s39.688-17.863 39.688-39.688c0-21.825-17.863-39.687-39.688-39.687zm0 15.875c13.245 0 23.812 10.567 23.812 23.812 0 13.245-10.567 23.812-23.812 23.812s-23.812-10.567-23.812-23.812c0-13.245 10.567-23.812 23.812-23.812z" style="color:#000000;fill:#ffbb00"/><path d="m137.62 79.991c-19.139 0-34.804 15.665-34.804 34.804 0 19.139 15.665 34.804 34.804 34.804s34.804-15.665 34.804-34.804c0-19.139-15.665-34.804-34.804-34.804zm0 13.921c11.615 0 20.882 9.2669 20.882 20.882 0 11.615-9.2669 20.882-20.882 20.882s-20.882-9.2668-20.882-20.882c0-11.615 9.2669-20.882 20.882-20.882z" clip-path="url(#clipPath7199)" style="color:#000000;fill:#ffffff;filter:url(#filter7203);opacity:.5"/><path d="m137.62 73.785c-22.547 0-41.01 18.463-41.01 41.01 0 22.547 18.463 41.01 41.01 41.01 22.547 0 41.01-18.463 41.01-41.01 0-22.547-18.463-41.01-41.01-41.01zm0 2.6445c21.103 0 38.365 17.262 38.365 38.365s-17.262 38.365-38.365 38.365-38.365-17.262-38.365-38.365 17.262-38.365 38.365-38.365zm0 13.23c-13.949 0-25.135 11.186-25.135 25.135 0 13.949 11.186 25.135 25.135 25.135s25.135-11.186 25.135-25.135c0-13.949-11.186-25.135-25.135-25.135zm0 2.6445c12.542 0 22.49 9.9486 22.49 22.49 0 12.542-9.9486 22.49-22.49 22.49s-22.49-9.9486-22.49-22.49c0-12.542 9.9486-22.49 22.49-22.49z" style="color:#000000;fill:#d68600"/><path d="m127.47 120.79c-2.2391-.002-4.4804.65789-6.344 1.9018-8.1242 6.6584-5.1398 19.715-.91132 26.437 4.2285 6.7221 9.2381 12.523 16.782 12.523.20802 0 .41672-.002.6245-.008.20778.006.41507.008.62309.008 7.5444 1e-5 12.555-5.8005 16.784-12.523 4.2285-6.7221 7.2128-19.778-.91132-26.437-1.8636-1.2439-4.1048-1.904-6.344-1.9018-.62694 7e-4-1.2552.0532-1.8735.15966-3.1141.53649-5.9666 2.4423-8.2789 2.4423-2.3123 0-5.1648-1.9058-8.2789-2.4423-.61826-.1065-1.2452-.15896-1.8721-.15966z" style="-inkscape-stroke:none;color:#000000;fill:#ffbb00;stroke-linecap:round;stroke-width:2.6458"/><path d="m128.85 120.79c-1.9347-.002-3.8713.56845-5.4815 1.6432-7.0197 5.7532-4.4411 17.035-.78743 22.843 3.6536 5.8082 7.9822 10.82 14.501 10.82.17974 0 .36007-.002.5396-.007.17953.005.35864.007.53838.007 6.5188 0 10.849-5.0119 14.502-10.82 3.6536-5.8082 6.2323-17.09-.78743-22.843-1.3788-.92026-2.9967-1.4707-4.6479-1.6088-.14086-.0118-.28197-.0206-.42319-.0263-.13672-.006-.27356-.008-.41038-.008-.54171 6e-4-1.0846.046-1.6188.13795-2.6907.46356-5.1555 2.1103-7.1534 2.1103s-4.4627-1.6467-7.1534-2.1103c-.5342-.092-1.0759-.13735-1.6176-.13795z" clip-path="url(#clipPath7265)" style="color:#000000;fill:#ffffff;filter:url(#filter7269);opacity:.5;stroke-linecap:round;stroke-width:2.2861"/><path d="m127.47 119.46c-2.4998-.002-4.9888.72917-7.0801 2.125l-.0527.0352-.0508.041c-4.4514 3.6482-5.8439 9.0758-5.5703 14.287.27355 5.2113 2.1319 10.308 4.377 13.877 2.1483 3.4152 4.5194 6.6544 7.416 9.0898s6.3751 4.0508 10.486 4.0508c.19103 0 .38828-.003.58594-.008.22468.006.44561.008.66211.008 4.1112 1e-5 7.5894-1.6153 10.486-4.0508s5.2696-5.6746 7.418-9.0898c2.2451-3.5691 4.1034-8.6657 4.377-13.877.27354-5.2113-1.1189-10.639-5.5703-14.287l-.0508-.041-.0527-.0352c-2.0912-1.3958-4.5801-2.1274-7.0801-2.125-.69981.00079-1.4014.0582-2.0957.17774h-.002c-1.7487.30127-3.3182.95621-4.6953 1.4941s-2.5647.92969-3.3574.92969c-.7927 0-1.9803-.39176-3.3574-.92969s-2.9485-1.1929-4.6973-1.4941c-.69407-.11956-1.3959-.17695-2.0957-.17774zm-.002 2.6465c.55413.00062 1.106.0452 1.6484.13867 1.3654.23522 2.7779.80246 4.1836 1.3516s2.8007 1.1113 4.3203 1.1113c1.5196 0 2.9146-.56223 4.3203-1.1113s2.8163-1.1163 4.1816-1.3516c.54223-.0934 1.0963-.13805 1.6504-.13867 1.9552-.002 3.9218.58087 5.5469 1.6484 3.6324 3.0092 4.8061 7.4144 4.5625 12.055-.24472 4.662-1.9912 9.4544-3.9746 12.607-2.0802 3.3069-4.3291 6.3293-6.8809 8.4746-2.5518 2.1453-5.35 3.4297-8.7832 3.4297-.19954 0-.3931-.002-.58399-.008l-.0391-.002-.0391.002c-.19071.006-.3864.008-.58594.008-3.4332 1e-5-6.2318-1.2844-8.7832-3.4297-2.5514-2.1453-4.7987-5.1677-6.8789-8.4746-1.9834-3.153-3.7299-7.9454-3.9746-12.607-.24357-4.6402.93006-9.0454 4.5625-12.055 1.625-1.0675 3.5916-1.6502 5.5469-1.6484z" style="-inkscape-stroke:none;color:#000000;fill:#d68600;stroke-linecap:round"/><path d="m99.043 114.79h-125.68" style="-inkscape-stroke:none;color:#000000;fill:#ffd700;stroke-linecap:round;stroke-width:20.541"/><g transform="translate(-1.5875)"><path d="m-25.051 104.52a10.271 10.271 0 00-10.271 10.271 10.271 10.271 0 0010.271 10.271h125.68a10.271 10.271 0 0010.271-10.271 10.271 10.271 0 00-10.271-10.271z" style="-inkscape-stroke:none;color:#000000;fill:#ffbb00;stroke-linecap:round;stroke-width:2.6458"/><path transform="matrix(.9918 0 0 1 -.26557 0)" d="m-18.606 108.04a10.026 6.7586 0 00-10.026 6.7591 10.026 6.7586 0 0010.026 6.7591h122.68a10.026 6.7586 0 0010.026-6.7591 10.026 6.7586 0 00-10.026-6.7591z" style="-inkscape-stroke:none;color:#000000;fill:#ffffff;filter:url(#filter7463);opacity:.5;stroke-linecap:round;stroke-width:2.1205"/><path d="m-25.051 103.2c-6.388-.00049-11.594 5.2058-11.594 11.594-.000492 6.388 5.2058 11.594 11.594 11.594h125.68c6.388.00049 11.594-5.2058 11.594-11.594.00048-6.388-5.2058-11.594-11.594-11.594zm0 2.6445h125.68c4.9579-.00037 8.9496 3.9913 8.9492 8.9492.00038 4.9579-3.9913 8.9496-8.9492 8.9492h-125.68c-4.9579.00038-8.9496-3.9913-8.9492-8.9492-.000377-4.9579 3.9913-8.9496 8.9492-8.9492z" style="-inkscape-stroke:none;color:#000000;fill:#d68600;stroke-linecap:round"/></g></g></g></svg>
